# xmcd
#
# Track frame offsets: 
#        150
#        14281
#        30000
#        40522
#        51883
#        64936
#        81198
#        101110
#        113046
#        121722
#        128961
#        141225
#
# Disc length: 2048 seconds
#
# Revision: 0
# Processed by: cddbd v1.5.1PL0 Copyright (c) Steve Scherf et al.
# Submitted via: ExactAudioCopy v0.90b4
#
DISCID=9507fe0c
DTITLE=Washboard Hank and Country Squires - Hoorah For Washboard Hank
DYEAR=2003
DGENRE=Country
TTITLE0=Playing In The Woodpile
TTITLE1=Train Yards
TTITLE2=Donut Shops Of Ontario
TTITLE3=Wasboard Boogie
TTITLE4=Marmora Pig
TTITLE5=Donald Lowes
TTITLE6=Nothing Lasts Forever
TTITLE7=Ready For The River
TTITLE8=Red Dog Ray and The I.P.A.
TTITLE9=I Love You Queen Elizabeth
TTITLE10=Can't Tame Wild Women
TTITLE11=End Of The Night
EXTD=
EXTT0=
EXTT1=
EXTT2=
EXTT3=
EXTT4=
EXTT5=
EXTT6=
EXTT7=
EXTT8=
EXTT9=
EXTT10=
EXTT11=
PLAYORDER=
